<svg width="80" height="80" viewBox="0 0 80 80" fill="none" xmlns="http://www.w3.org/2000/svg">
<path d="M39.9998 80C61.8429 80 80 61.8432 80 40C80 18.1176 61.8038 0 39.9607 0C18.0782 0 0 18.1176 0 40C0 61.8432 18.1176 80 39.9998 80ZM29.7645 49.7648C20.0391 40.0785 13.843 27.7254 21.1763 20.3922C21.6077 19.9607 22.0784 19.5293 22.5097 19.098C24.7449 16.9804 26.9019 17.098 28.8234 19.8039L33.9214 27.0588C35.6468 29.5686 35.2155 30.9804 33.3725 32.9412L31.7645 34.706C31.1764 35.2548 31.4116 36 31.6862 36.4705C32.4313 37.8824 34.5489 40.3922 36.8233 42.6668C39.1763 45.0196 41.5685 47.0196 43.0586 47.8432C43.6078 48.1569 44.392 48.2354 44.9018 47.7647L46.5881 46.1569C48.4704 44.3137 49.9999 43.8432 52.4312 45.5686C55.8037 47.9608 57.843 49.3726 59.843 50.7452C62.3134 52.549 62.9017 54.7845 60.3919 57.0588C59.9606 57.4902 59.5684 57.9609 59.1371 58.3922C51.8038 65.6864 39.49 59.4902 29.7645 49.7648Z" fill="#A6B5CA"/>
</svg>
