<svg width="80" height="80" viewBox="0 0 80 80" fill="none" xmlns="http://www.w3.org/2000/svg">
<path d="M74 0H6C4.4087 0 2.88258 0.632141 1.75736 1.75736C0.632141 2.88258 0 4.4087 0 6V74C0 75.5913 0.632141 77.1174 1.75736 78.2426C2.88258 79.3679 4.4087 80 6 80H74C75.5913 80 77.1174 79.3679 78.2426 78.2426C79.3679 77.1174 80 75.5913 80 74V6C80 4.4087 79.3679 2.88258 78.2426 1.75736C77.1174 0.632141 75.5913 0 74 0ZM24 68H12V32H24V68ZM18 25C16.6247 24.9607 15.2915 24.517 14.167 23.7243C13.0425 22.9316 12.1765 21.8251 11.6772 20.5431C11.1779 19.2611 11.0675 17.8603 11.3598 16.5159C11.652 15.1715 12.334 13.943 13.3205 12.9839C14.3069 12.0248 15.5541 11.3777 16.9063 11.1235C18.2584 10.8692 19.6555 11.019 20.9229 11.5542C22.1904 12.0894 23.2721 12.9862 24.0328 14.1326C24.7934 15.279 25.1994 16.6242 25.2 18C25.1684 19.8814 24.3933 21.6738 23.0442 22.9855C21.6951 24.2971 19.8815 25.0214 18 25ZM68 68H56V49.04C56 43.36 53.6 41.32 50.48 41.32C49.5652 41.3809 48.6715 41.6219 47.8502 42.0292C47.0288 42.4365 46.2961 43.0021 45.6939 43.6934C45.0918 44.3848 44.6322 45.1882 44.3415 46.0577C44.0508 46.9272 43.9347 47.8455 44 48.76C43.9801 48.9461 43.9801 49.1339 44 49.32V68H32V32H43.6V37.2C44.7701 35.42 46.3777 33.9703 48.2688 32.9897C50.1598 32.0092 52.271 31.5307 54.4 31.6C60.6 31.6 67.84 35.04 67.84 46.24L68 68Z" fill="#A6B5CA"/>
</svg>
