<svg width="80" height="80" viewBox="0 0 80 80" fill="none" xmlns="http://www.w3.org/2000/svg">
<path d="M40 0C17.9107 0 0 17.9107 0 40C0 62.0893 17.9107 80 40 80C62.0893 80 80 62.0893 80 40C80 17.9107 62.0893 0 40 0ZM61.7589 52.6071L40 65.1786L18.2411 52.6071V27.4821L28.0625 21.8036L28.0268 21.7857H28.0446L40 14.9107L51.9643 21.7857H51.9464L51.9196 21.8036L61.75 27.4821V52.6071H61.7589ZM21.7768 42.2054L29.5982 46.6607V55.0893L38.2321 60.0804V41.1429L21.7768 31.6429V42.2054ZM39.9821 28.6518L31.6071 23.8393L23.4732 28.5357L40.0089 38.0893L56.5446 28.5446L48.3839 23.8304L39.9821 28.6518ZM41.7679 60.0804L50.4554 55.0625V46.6607L58.2232 42.2411V31.6518L41.7679 41.1607V60.0804Z" fill="#A6B5CA"/>
</svg>
