<svg width="80" height="80" viewBox="0 0 80 80" fill="none" xmlns="http://www.w3.org/2000/svg">
<path d="M53.5536 28.4286C54.4643 35.0893 52.7143 42.5357 47.1429 46.4107C43.1607 49.1786 37.7143 48.9286 34.5 47.4286C27.875 44.3393 25.6607 36.9643 26.1429 30.0714C26.9107 19.1964 33.4464 14.375 39.5893 14.4464C47.9643 14.4107 52.4107 20.125 53.5536 28.4286ZM80 10V70C80 75.5179 75.5179 80 70 80H10C4.48214 80 0 75.5179 0 70V10C0 4.48214 4.48214 0 10 0H70C75.5179 0 80 4.48214 80 10ZM58.9286 50.2143C58.9286 50.2143 58.9107 44.1429 58.9107 11.4107H53.7321V18.6071C53.5893 18.6607 53.5179 18.5179 53.4464 18.3929C51.7321 14.6964 47.0357 10.125 39.875 10.1786C30.6071 10.25 24.3036 15.75 21.9107 24.0714C21.1429 26.7321 20.875 29.4464 20.9286 32.2143C21.2321 46.125 28.9821 53.25 41 52.7857C46.1607 52.5893 50.7321 49.75 53.3214 44.7143C53.4107 44.5357 53.5179 44.375 53.625 44.1964C53.6607 44.2143 53.6964 44.2143 53.7321 44.2321C53.7857 44.9107 53.7679 49.7143 53.75 50.3929C53.7143 53.0357 53.3929 55.6607 52.4643 58.1607C51.0714 61.9107 48.4821 64.3571 44.5179 65.2143C41.3393 65.9107 38.1607 65.8929 35.0179 65C31.1786 63.9107 28.5 61.6071 27.6786 57.5357C27.625 57.25 27.4464 57.3036 27.2679 57.3036H22.4821C22.625 59.1964 23.0536 60.9286 24 62.5179C28.3214 69.75 38.7679 71.1786 46.8929 69.1964C55.8036 67 58.9107 59.3929 58.9286 50.2143Z" fill="#A6B5CA"/>
</svg>
