<svg width="80" height="80" viewBox="0 0 80 80" fill="none" xmlns="http://www.w3.org/2000/svg">
<path d="M37.6512 0.0732829C32.3873 0.497315 28.0885 1.53546 23.8189 3.40706C12.6332 8.29074 4.15259 18.3652 1.16974 30.2381C0.350923 33.528 0 36.3792 0 39.8885C0 47.6527 1.87159 54.3641 5.90721 61.0024C11.3173 69.8778 20.222 76.3553 30.5596 78.8995C36.5692 80.3909 43.3683 80.3617 49.5387 78.841C59.8471 76.2968 68.6933 69.7608 74.1618 60.6514C76.6768 56.4842 78.1097 52.7995 79.0894 48.0474C79.6743 45.1962 79.879 43.0907 79.879 39.8885C79.8643 33.528 78.6069 28.1325 75.8141 22.4154C72.9775 16.6106 69.0296 11.8438 63.8242 7.95444C57.8585 3.48016 50.6792 0.77513 43.0612 0.117148C41.4236 -0.0144479 38.9964 -0.0436915 37.6512 0.0732829ZM28.3371 29.2584C29.4776 30.0626 29.7408 31.5248 28.9512 32.7677C28.4833 33.5134 25.1203 38.0023 21.2016 43.1053L18.6721 46.3952L19.4616 46.4829C19.9003 46.5268 22.0643 46.5706 24.2722 46.5999C27.9277 46.6291 28.3371 46.6584 28.8488 46.9216C29.6092 47.3164 30.0478 48.2668 29.9162 49.2318C29.7993 50.0653 29.463 50.5478 28.7172 50.9279C28.1762 51.2058 27.8546 51.2204 21.5672 51.2204C17.9556 51.2204 14.6072 51.1619 14.1539 51.1034C13.2474 50.9718 12.5601 50.577 12.0776 49.9337C11.639 49.3488 11.6682 48.0913 12.1361 47.1994C12.487 46.5268 14.0808 44.392 18.906 38.1485C21.728 34.5223 22.2252 33.8058 22.2252 33.4841C22.2252 33.3525 21.3625 33.3087 18.3796 33.3087C13.9492 33.3087 13.3351 33.2063 12.5894 32.3582C12.1946 31.905 12.1361 31.7149 12.1361 31.0423C12.1361 30.3697 12.1946 30.1796 12.5894 29.7263C13.3936 28.8051 13.5983 28.7905 21.07 28.8198L27.7376 28.849L28.3371 29.2584ZM49.992 29.0391C50.2698 29.1707 50.6353 29.4777 50.7962 29.6971C51.1032 30.1065 51.1032 30.2819 51.1471 39.2744C51.1763 45.6787 51.1471 48.6762 51.0301 49.2026C50.5768 51.2789 47.7841 51.6737 46.8775 49.7728C46.6728 49.3342 46.6436 48.2522 46.6436 39.8739C46.6436 30.823 46.6582 30.4574 46.936 29.8872C47.0969 29.5509 47.4039 29.1707 47.6232 29.0391C48.1642 28.7028 49.3486 28.7028 49.992 29.0391ZM37.6512 35.2095C38.1337 35.2826 38.9671 35.575 39.5081 35.8675C40.6486 36.467 40.9411 36.4962 41.3212 36.0722C42.0231 35.2972 43.0027 35.151 44.0263 35.692C45.2106 36.3208 45.1814 36.1307 45.2253 43.0468C45.2545 48.7932 45.2399 49.2026 44.9767 49.729C44.3333 51.0303 42.5495 51.3958 41.4528 50.4454C41.1604 50.1822 40.8387 49.9775 40.7217 49.9775C40.6048 49.9775 40.0638 50.2115 39.5228 50.4893C36.8908 51.8637 34.215 51.4105 31.9779 49.2172C29.887 47.1555 29.0535 44.0118 29.8285 40.9997C30.4134 38.6895 31.9194 36.7302 33.7764 35.8236C35.2093 35.1218 36.1744 34.9609 37.6512 35.2095ZM62.6545 35.4581C65.0963 36.2184 66.9094 37.973 67.7282 40.4149C68.2108 41.877 68.2108 44.4797 67.7136 46.0004C66.5292 49.5974 62.9469 51.7468 59.0429 51.1765C55.0804 50.6063 52.4923 47.4333 52.4923 43.1784C52.4923 38.8357 55.1827 35.6628 59.2183 35.2241C60.4466 35.0925 61.7333 35.1803 62.6545 35.4581Z" fill="#A6B5CA"/>
<path d="M36.8179 39.4499C35.3996 39.7131 34.4053 41.029 34.2591 42.7983C34.0544 45.2255 35.3411 46.907 37.3736 46.907C39.3914 46.907 40.5172 45.5618 40.5319 43.1638C40.5465 40.6781 38.8942 39.0404 36.8179 39.4499Z" fill="#A6B5CA"/>
<path d="M59.6421 39.3664C58.2238 39.6296 57.2295 40.9455 57.0833 42.7148C56.8786 45.142 58.1653 46.8235 60.1978 46.8235C62.2156 46.8235 63.3415 45.4783 63.3561 43.0803C63.3707 40.5946 61.7184 38.957 59.6421 39.3664Z" fill="#A6B5CA"/>
</svg>
